<svg width="16" height="16" viewBox="0 0 16 16" fill="none" xmlns="http://www.w3.org/2000/svg">
<path d="M16 8.00033V7.99633C16 5.62899 14.9693 3.50299 13.3327 2.04099L13.3247 2.03433C13.3045 2.01253 13.2819 1.99308 13.2573 1.97633L13.256 1.97566C11.8024 0.699345 9.93307 -0.0027779 7.99867 0.000991663C5.97734 0.000991663 4.132 0.751658 2.72534 1.99033L2.734 1.98299C2.71705 1.99585 2.70142 2.01037 2.68734 2.02633C1.84169 2.77512 1.1648 3.69572 0.701507 4.72585C0.238217 5.75599 -0.000897926 6.87281 2.53378e-06 8.00233C2.53378e-06 10.369 1.02934 12.495 2.66467 13.9577L2.67267 13.9643C2.69385 13.9883 2.71754 14.01 2.74334 14.029L2.74467 14.0297C4.19789 15.3041 6.06579 16.0052 7.99867 16.0017C9.94058 16.0046 11.8165 15.2971 13.2727 14.0123L13.264 14.0197C14.1243 13.2717 14.8139 12.3477 15.2862 11.3101C15.7584 10.2725 16.0023 9.14564 16.0013 8.00566V8.00099L16 8.00033ZM13.0253 13.2037C12.629 12.8831 12.2029 12.6014 11.7527 12.3623L11.7093 12.341C12.118 11.163 12.364 9.80499 12.3873 8.39233V8.38166H15.228C15.1322 10.2093 14.3456 11.9322 13.0273 13.2017L13.0253 13.2037ZM8.38134 12.2003C9.23667 12.2463 10.036 12.4343 10.7733 12.7403L10.7253 12.723C10.1347 14.0697 9.30334 14.995 8.38134 15.1983V12.2003ZM8.38134 11.4377V8.38166H11.6267C11.6009 9.64716 11.3815 10.9013 10.976 12.1003L11.002 12.013C10.1743 11.6728 9.29399 11.4784 8.4 11.4383L8.382 11.4377H8.38134ZM8.38134 7.61899V4.56299C9.29945 4.52109 10.2033 4.3201 11.0527 3.96899L11 3.98832C11.37 5.06766 11.5973 6.31166 11.6267 7.60499V7.61899H8.38134ZM8.38134 3.80032V0.803658C9.30334 1.00699 10.1347 1.92833 10.7253 3.27899C10.036 3.56566 9.23667 3.75299 8.40067 3.79966L8.38134 3.80032ZM10.284 1.13366C11.0696 1.39568 11.8043 1.79077 12.456 2.30166L12.4407 2.28966C12.1453 2.52166 11.814 2.74032 11.4647 2.93032L11.4273 2.94899C11.1451 2.28281 10.7569 1.66664 10.278 1.12432L10.284 1.13166V1.13366ZM7.61734 0.805658V3.80032C6.795 3.75837 5.98594 3.57573 5.22534 3.26032L5.27334 3.27766C5.86667 1.93099 6.69667 1.00632 7.61867 0.802992L7.61734 0.805658ZM4.572 2.94699C4.21062 2.75256 3.86629 2.52799 3.54267 2.27566L3.55867 2.28766C4.19142 1.79176 4.90315 1.40592 5.664 1.14632L5.71467 1.13099C5.24828 1.65861 4.86825 2.25667 4.58867 2.90299L4.572 2.94699ZM7.61867 4.56232V7.61833H4.37334C4.40267 6.31099 4.63 5.06699 5.026 3.90032L5 3.98766C5.82738 4.32731 6.7072 4.52149 7.60067 4.56166L7.61867 4.56232ZM7.61867 8.38099V11.437C6.70056 11.4789 5.79669 11.6799 4.94734 12.031L5 12.0117C4.63 10.933 4.40267 9.68833 4.37334 8.39499V8.38099H7.61867ZM7.61867 12.1997V15.1963C6.69667 14.993 5.86534 14.0717 5.27467 12.721C5.964 12.4343 6.76334 12.2477 7.59934 12.201L7.61867 12.1997ZM5.71867 14.8663C4.9333 14.6051 4.19863 14.2109 3.54667 13.701L3.56267 13.713C3.858 13.481 4.18934 13.2623 4.53867 13.0723L4.576 13.0537C4.85592 13.7201 5.24404 14.3357 5.72467 14.8757L5.71867 14.869V14.8663ZM11.428 13.053C11.8147 13.263 12.146 13.481 12.4573 13.7243L12.4413 13.7123C11.8086 14.2082 11.0969 14.5941 10.336 14.8537L10.2853 14.869C10.7517 14.3416 11.1317 13.7438 11.4113 13.0977L11.428 13.0543V13.053ZM15.228 7.61899H12.3873C12.3669 6.23963 12.1289 4.87213 11.682 3.56699L11.7093 3.65899C12.1803 3.41103 12.6261 3.11811 13.0407 2.78433L13.0247 2.79632C14.3402 4.06101 15.1271 5.77755 15.2267 7.59966L15.2273 7.61833L15.228 7.61899ZM2.97467 2.79699C3.35867 3.10899 3.79 3.39499 4.24734 3.63832L4.29067 3.65966C3.882 4.83766 3.636 6.19566 3.61267 7.60832V7.61899H0.771336C0.867131 5.79139 1.65377 4.06846 2.972 2.79899L2.97467 2.79699ZM0.772003 8.38166H3.61267C3.63311 9.76102 3.87115 11.1285 4.318 12.4337L4.29067 12.3417C3.79 12.6077 3.35934 12.8937 2.95934 13.2163L2.97534 13.2043C1.65983 11.9396 0.872912 10.2231 0.773336 8.40099L0.772669 8.38233L0.772003 8.38166Z" fill="white"/>
</svg>
