<svg width="3470" height="340" viewBox="0 0 3470 340" fill="none" xmlns="http://www.w3.org/2000/svg">
<path d="M476.598 67.9965V272.003L544.626 340H748.624V272.003H544.626V67.9965H816.739V0H544.626L476.598 67.9965Z" fill="white"/>
<path d="M680.683 204.007H748.711V272.004H816.739V136.01H680.683V204.007Z" fill="white"/>
<path d="M1224.94 340V272.003H1156.92L1224.94 340Z" fill="white"/>
<path d="M1224.94 67.9965V0H884.768V67.9965H1121.18L884.994 272.003H884.768V272.177V272.195V311.387V340H1156.92V272.003H988.774L1224.94 67.9965Z" fill="white"/>
<path d="M1361 0L1292.97 67.9965V204.007H1565.1V272.003H1292.97V340H1565.1L1633.13 272.003V136.01H1361V67.9965H1565.1H1633.13V0H1565.1H1361Z" fill="white"/>
<path d="M1905.26 340L1837.22 272.003V340H1905.26Z" fill="white"/>
<path d="M1701.16 67.9965H1837.22V272.003H1905.26V67.9965H2041.34V0H1701.16V67.9965Z" fill="white"/>
<path d="M2381.48 272.003H2177.39V0H2109.36V272.003L2177.39 340H2381.48L2449.52 272.003V0H2381.48V272.003Z" fill="white"/>
<path d="M3401.97 0H3197.87V67.9965H3401.97V272.003H3197.87V67.9965H3129.84V272.003L3197.87 340H3401.97V272.003H3470V67.9965L3401.97 0Z" fill="white"/>
<path d="M0 340H68.0283V204.007H272.131V136.01H68.0283L0 194.765V340Z" fill="white"/>
<path d="M0 67.9966V136.01H68.0283V67.9966H0Z" fill="white"/>
<path d="M272.113 0H68.0283V67.9965H272.113V0Z" fill="white"/>
<path d="M408.57 0H340.489V68.0139H408.57V0Z" fill="white"/>
<path d="M340.507 340H408.552V68.0139L340.507 136.01V340Z" fill="white"/>
<path d="M2993.78 340H3061.83V68.0139L2993.78 136.01V340Z" fill="white"/>
<path d="M3061.81 0H2993.75V68.0139H3061.81V0Z" fill="white"/>
<path d="M2585.58 67.9966H2517.55V271.986H2585.58V67.9966Z" fill="white"/>
<path d="M2585.58 0V67.9965H2857.71V272.003H2585.58V340H2857.71L2925.74 272.003V67.9965L2857.71 0H2585.58Z" fill="white"/>
</svg>
