<svg width="199" height="19" viewBox="0 0 199 19" fill="none" xmlns="http://www.w3.org/2000/svg">
<path d="M27.1953 3.87983V14.697L31.0771 18.3024H42.7173V14.697H31.0771V3.87983H46.604V0.274414H31.0771L27.1953 3.87983Z" fill="black"/>
<path d="M38.8398 11.0917H42.7216V14.6972H46.6033V7.48633H38.8398V11.0917Z" fill="black"/>
<path d="M69.8954 18.3027V14.6973H66.0137L69.8954 18.3027Z" fill="black"/>
<path d="M69.895 3.87983V0.274414H50.4844V3.87983H63.9743L50.4973 14.697H50.4844V14.7062V14.7071V16.7853V18.3024H66.0133V14.697H56.4191L69.895 3.87983Z" fill="black"/>
<path d="M77.6591 0.274414L73.7773 3.87983V11.0916H89.3053V14.697H73.7773V18.3024H89.3053L93.187 14.697V7.48617H77.6591V3.87983H89.3053H93.187V0.274414H89.3053H77.6591Z" fill="black"/>
<path d="M108.715 18.3027L104.832 14.6973V18.3027H108.715Z" fill="black"/>
<path d="M97.0703 3.87983H104.834V14.697H108.717V3.87983H116.481V0.274414H97.0703V3.87983Z" fill="black"/>
<path d="M135.888 14.697H124.243V0.274414H120.361V14.697L124.243 18.3024H135.888L139.771 14.697V0.274414H135.888V14.697Z" fill="black"/>
<path d="M194.12 0.274414H182.474V3.87983H194.12V14.697H182.474V3.87983H178.592V14.697L182.474 18.3024H194.12V14.697H198.001V3.87983L194.12 0.274414Z" fill="black"/>
<path d="M0 18.3026H3.88174V11.0917H15.5279V7.48633H3.88174L0 10.6017V18.3026Z" fill="black"/>
<path d="M0 3.87988V7.48622H3.88174V3.87988H0Z" fill="black"/>
<path d="M15.5261 0.274414H3.88086V3.87983H15.5261V0.274414Z" fill="black"/>
<path d="M23.3144 0.274414H19.4297V3.88075H23.3144V0.274414Z" fill="black"/>
<path d="M19.4297 18.3025H23.3124V3.88086L19.4297 7.48628V18.3025Z" fill="black"/>
<path d="M170.828 18.3025H174.711V3.88086L170.828 7.48628V18.3025Z" fill="black"/>
<path d="M174.708 0.274414H170.824V3.88075H174.708V0.274414Z" fill="black"/>
<path d="M147.534 3.87988H143.652V14.6961H147.534V3.87988Z" fill="black"/>
<path d="M147.535 0.274414V3.87983H163.063V14.697H147.535V18.3024H163.063L166.945 14.697V3.87983L163.063 0.274414H147.535Z" fill="black"/>
</svg>
